<?xml version="1.0" encoding="UTF-8"?><svg id="Layer_1" xmlns="http://www.w3.org/2000/svg" width="248.84mm" height="248.75mm" xmlns:xlink="http://www.w3.org/1999/xlink" viewBox="0 0 705.36 705.12"><defs><filter id="drop-shadow-1" filterUnits="userSpaceOnUse"><feOffset dx="5.67" dy="5.67"/><feGaussianBlur result="blur" stdDeviation="5.67"/><feFlood flood-color="#1d1d1b" flood-opacity=".25"/><feComposite in2="blur" operator="in"/><feComposite in="SourceGraphic"/></filter><linearGradient id="linear-gradient" x1="11.51" y1="345.19" x2="682.39" y2="345.19" gradientTransform="translate(0 692.01) scale(1 -1)" gradientUnits="userSpaceOnUse"><stop offset="0" stop-color="#fff" stop-opacity=".25"/><stop offset="1" stop-color="#fff" stop-opacity="0"/></linearGradient></defs><g style="isolation:isolate;"><g id="Layer_1-2"><circle cx="346.95" cy="346.82" r="335.44" style="fill:#fff; filter:url(#drop-shadow-1); stroke-width:0px;"/><path d="M249.06,410.3c-11.85-18.21-18.81-39.88-18.81-63.17,0-64.07,52.12-116.2,116.2-116.2,30.27,0,57.79,11.73,78.49,30.77l142.72-120.59c-55.2-59.24-133.86-96.34-221.21-96.34-166.99,0-302.35,135.37-302.35,302.35,0,69.13,23.25,132.8,62.29,183.73l142.68-120.55h0Z" style="fill:#bfbebe; stroke-width:0px;"/><path d="M444.85,283.35c11.85,18.21,18.81,39.88,18.81,63.17,0,64.07-52.12,116.2-116.2,116.2-30.27,0-57.79-11.73-78.49-30.77l-142.72,120.59c55.2,59.24,133.86,96.34,221.21,96.34,166.99,0,302.35-135.37,302.35-302.35,0-69.13-23.25-132.8-62.29-183.73l-142.68,120.55h0Z" style="fill:#bfbebe; stroke-width:0px;"/><circle cx="346.63" cy="347.31" r="86.67" style="fill:#bfbebe; stroke-width:0px;"/><circle cx="346.95" cy="346.82" r="335.44" style="fill:url(#linear-gradient); isolation:isolate; mix-blend-mode:screen; stroke-width:0px;"/></g></g></svg>