<?xml version="1.0" encoding="UTF-8"?><svg xmlns="http://www.w3.org/2000/svg" width="248.75mm" height="248.84mm" xmlns:xlink="http://www.w3.org/1999/xlink" viewBox="0 0 705.12 705.36"><defs><filter id="drop-shadow-1"><feOffset dx="5.7" dy="5.7"/><feGaussianBlur result="blur" stdDeviation="5.7"/><feFlood flood-color="#1d1d1b" flood-opacity=".2"/><feComposite in2="blur" operator="in"/><feComposite in="SourceGraphic"/></filter><linearGradient id="linear-gradient" x1="11.34" y1="346.99" x2="682.23" y2="346.99" gradientUnits="userSpaceOnUse"><stop offset="0" stop-color="#fff" stop-opacity=".61"/><stop offset="1" stop-color="#fff" stop-opacity="0"/></linearGradient></defs><g style="isolation:isolate;"><g id="Layer_1"><circle cx="346.79" cy="346.99" r="335.44" style="fill:#fff; filter:url(#drop-shadow-1); stroke-width:0px;"/><path d="M248.89,410.47c-11.85-18.21-18.81-39.88-18.81-63.17,0-64.07,52.12-116.2,116.2-116.2,30.27,0,57.79,11.73,78.49,30.77l142.72-120.59c-55.2-59.24-133.86-96.34-221.21-96.34-166.99,0-302.35,135.37-302.35,302.35,0,69.13,23.25,132.8,62.29,183.73l142.68-120.55Z" style="fill:#bfbebe; stroke-width:0px;"/><path d="M444.68,283.51c11.85,18.21,18.81,39.88,18.81,63.17,0,64.07-52.12,116.2-116.2,116.2-30.27,0-57.79-11.73-78.49-30.77l-142.72,120.59c55.2,59.24,133.86,96.34,221.21,96.34,166.99,0,302.35-135.37,302.35-302.35,0-69.13-23.25-132.8-62.29-183.73l-142.68,120.55Z" style="fill:#bfbebe; stroke-width:0px;"/><circle cx="346.45" cy="347.49" r="86.67" transform="translate(-51.19 59.98) rotate(-9.22)" style="fill:#bfbebe; stroke-width:0px;"/><circle cx="346.79" cy="346.99" r="335.44" style="fill:url(#linear-gradient); mix-blend-mode:screen; stroke-width:0px;"/></g></g></svg>