<svg id="Layer_1" xmlns="http://www.w3.org/2000/svg" xmlns:xlink="http://www.w3.org/1999/xlink" viewBox="0 0 284.07 92.59"><defs><linearGradient id="linear-gradient" x1="39.14" y1="44.12" x2="39.14" y2="90.77" gradientUnits="userSpaceOnUse"><stop offset="0" stop-color="#ed6b78"/><stop offset="1" stop-color="#eb577f"/></linearGradient><linearGradient id="linear-gradient-2" x1="39.1" y1="2.42" x2="39.1" y2="145.19" gradientUnits="userSpaceOnUse"><stop offset=".16" stop-color="#fff"/><stop offset=".68" stop-color="#d1d0d1"/></linearGradient><linearGradient id="linear-gradient-3" x1="188.54" y1="17.1" x2="188.54" y2="68.52" gradientUnits="userSpaceOnUse"><stop offset="0" stop-color="#df4b73"/><stop offset="1" stop-color="#781236"/></linearGradient><clipPath id="clippath"><path d="M95.96,19.94c-.04-.19-.07-.35-.08-.48-.02-.13-.03-.22-.03-.25,0-1.17.7-1.75,2.09-1.75h.62c1.35,0,2.18.66,2.48,1.98l7.39,31.49c.3,1.32.56,1.97.79,1.97s.49-.66.79-1.97l7.22-31.49c.3-1.32,1.13-1.98,2.48-1.98h.68c1.35,0,2.03.6,2.03,1.81,0,.34-.02.56-.06.68l-8.58,36.12c-.3,1.32-1.13,1.98-2.48,1.98h-4.12c-1.32,0-2.14-.66-2.48-1.98l-8.75-36.12Z" style="fill:none; stroke-width:0px;"/></clipPath><linearGradient id="linear-gradient-4" x1="109.14" y1="11.82" x2="109.14" y2="59.33" gradientUnits="userSpaceOnUse"><stop offset="0" stop-color="#ef8fa6"/><stop offset=".97" stop-color="#e15d6c"/></linearGradient><clipPath id="clippath-1"><path d="M126.38,55.04c-.75-.75-1.13-1.67-1.13-2.77v-16.37c0-1.09.38-2.01,1.13-2.76l1.86-1.86c.75-.75,1.67-1.13,2.77-1.13h7c1.09,0,2.01.38,2.77,1.13l1.81,1.81c.75.83,1.13,1.77,1.13,2.82v16.37c.08,1.05-.3,1.99-1.13,2.82l-1.81,1.81c-.75.75-1.67,1.13-2.77,1.13h-7c-1.09,0-2.01-.38-2.77-1.13l-1.86-1.86ZM132.65,52.89h3.67c1.5,0,2.26-.75,2.26-2.26v-13.09c0-1.5-.75-2.26-2.26-2.26h-3.67c-1.51,0-2.26.75-2.26,2.26v13.09c0,1.51.75,2.26,2.26,2.26Z" style="fill:none; stroke-width:0px;"/></clipPath><linearGradient id="linear-gradient-5" x1="134.48" y1="21.8" x2="134.48" y2="69.3" xlink:href="#linear-gradient-4"/><clipPath id="clippath-2"><path d="M152.68,52.27v-14.79c0-1.5-.73-2.26-2.2-2.26s-2.26-.75-2.26-2.26v-.56c0-1.5.75-2.26,2.26-2.26s2.2-.75,2.2-2.26v-2.93c0-1.5.75-2.26,2.26-2.26h.62c1.5,0,2.26.75,2.26,2.26v2.93c0,1.5.75,2.26,2.26,2.26h2.26c1.5,0,2.26.75,2.26,2.26v.56c0,1.51-.75,2.26-2.26,2.26h-2.26c-1.5,0-2.26.75-2.26,2.26v13.15c0,1.51.75,2.26,2.26,2.26h2.26c1.5,0,2.26.75,2.26,2.26v.62c0,1.51-.75,2.26-2.26,2.26h-3.89c-1.09,0-2.01-.38-2.77-1.13l-1.86-1.86c-.75-.75-1.13-1.67-1.13-2.77Z" style="fill:none; stroke-width:0px;"/></clipPath><linearGradient id="linear-gradient-6" x1="152.76" y1="18.04" x2="152.76" y2="65.55" xlink:href="#linear-gradient-4"/><clipPath id="clippath-3"><path d="M169.67,54.98c-.75-.75-1.13-1.67-1.13-2.76v-16.37c0-1.09.38-2.01,1.13-2.76l1.81-1.81c.75-.75,1.67-1.13,2.77-1.13h6.94c1.09,0,2.01.38,2.77,1.13l1.81,1.81c.75.75,1.13,1.67,1.13,2.76v9.42c0,1.5-.75,2.26-2.26,2.26h-8.69c-1.51,0-2.26.75-2.26,2.26v.79c0,1.51.75,2.26,2.26,2.26h8.69c1.5,0,2.26.75,2.26,2.26v.62c0,1.5-.75,2.26-2.26,2.26h-10.38c-1.05,0-1.98-.39-2.77-1.18l-1.81-1.81ZM175.93,43.02h3.56c1.5,0,2.26-.75,2.26-2.26v-3.27c0-1.5-.75-2.26-2.26-2.26h-3.56c-1.51,0-2.26.75-2.26,2.26v3.27c0,1.5.75,2.26,2.26,2.26ZM174.49,24.71c-.28-.36-.31-.8-.08-1.33l2.26-4.97c.23-.53.55-.97.99-1.33.43-.36.97-.54,1.61-.54h1.19c.6,0,1.04.18,1.33.54.28.36.31.8.08,1.33l-2.26,4.97c-.23.53-.56.97-.99,1.33-.43.36-.97.54-1.61.54h-1.18c-.6,0-1.04-.18-1.33-.54Z" style="fill:none; stroke-width:0px;"/></clipPath><linearGradient id="linear-gradient-7" x1="178.81" y1="18.04" x2="178.81" y2="65.55" xlink:href="#linear-gradient-4"/><clipPath id="clippath-4"><path d="M193.08,55.72v-19.81c0-1.13.38-2.07,1.13-2.82l1.81-1.81c.75-.75,1.67-1.13,2.76-1.13h3.56c1.05,0,1.97.39,2.76,1.18.49.49.98.73,1.47.73.41,0,.83-.21,1.24-.62l.11-.11c.79-.79,1.71-1.18,2.77-1.18h3.33c1.05,0,1.97.39,2.76,1.18l1.81,1.81c.75.75,1.13,1.67,1.13,2.76v19.81c0,1.5-.75,2.26-2.26,2.26h-.56c-1.51,0-2.26-.75-2.26-2.26v-18.17c0-1.5-.75-2.26-2.26-2.26h-1.07c-1.5,0-2.26.75-2.26,2.26v18.17c0,1.5-.75,2.26-2.26,2.26h-.56c-1.5,0-2.26-.75-2.26-2.26v-18.17c0-1.5-.75-2.26-2.26-2.26h-1.3c-1.5,0-2.26.75-2.26,2.26v18.17c0,1.5-.75,2.26-2.26,2.26h-.56c-1.51,0-2.26-.75-2.26-2.26Z" style="fill:none; stroke-width:0px;"/></clipPath><linearGradient id="linear-gradient-8" x1="206.4" y1="12.91" x2="206.4" y2="60.41" xlink:href="#linear-gradient-4"/><clipPath id="clippath-5"><path d="M227.06,55.04c-.75-.75-1.13-1.67-1.13-2.77v-16.37c0-1.09.38-2.01,1.13-2.76l1.86-1.86c.75-.75,1.67-1.13,2.77-1.13h7c1.09,0,2.01.38,2.77,1.13l1.81,1.81c.75.83,1.13,1.77,1.13,2.82v16.37c.08,1.05-.3,1.99-1.13,2.82l-1.81,1.81c-.75.75-1.67,1.13-2.77,1.13h-7c-1.09,0-2.01-.38-2.77-1.13l-1.86-1.86ZM233.32,52.89h3.67c1.5,0,2.26-.75,2.26-2.26v-13.09c0-1.5-.75-2.26-2.26-2.26h-3.67c-1.51,0-2.26.75-2.26,2.26v13.09c0,1.51.75,2.26,2.26,2.26Z" style="fill:none; stroke-width:0px;"/></clipPath><linearGradient id="linear-gradient-9" x1="235.16" y1="29.1" x2="235.16" y2="59.14" xlink:href="#linear-gradient-4"/><clipPath id="clippath-6"><path d="M250.59,55.83v-19.92c0-1.09.38-2.01,1.13-2.76l1.86-1.86c.75-.75,1.67-1.13,2.77-1.13h7c1.05,0,1.98.39,2.77,1.18l1.81,1.81c.75.75,1.13,1.67,1.13,2.76v19.92c0,1.51-.75,2.26-2.26,2.26h-.56c-1.5,0-2.26-.75-2.26-2.26v-18.28c0-1.5-.75-2.26-2.26-2.26h-3.72c-1.5,0-2.26.75-2.26,2.26v18.28c0,1.51-.75,2.26-2.26,2.26h-.62c-1.51,0-2.26-.75-2.26-2.26Z" style="fill:none; stroke-width:0px;"/></clipPath><linearGradient id="linear-gradient-10" x1="259.88" y1="12.96" x2="259.88" y2="60.47" xlink:href="#linear-gradient-4"/><clipPath id="clippath-7"><path d="M274.69,54.7c0-.64.32-1.28.96-1.92l.4-.39c.64-.64,1.28-.96,1.92-.96s1.28.32,1.92.96l.39.39c.64.64.96,1.28.96,1.92s-.32,1.28-.96,1.92l-.39.39c-.64.64-1.28.96-1.92.96s-1.28-.32-1.92-.96l-.4-.39c-.64-.64-.96-1.28-.96-1.92ZM275.42,45.95v-27.09c0-1.5.75-2.26,2.26-2.26h.56c1.5,0,2.26.75,2.26,2.26v27.09c0,1.5-.75,2.26-2.26,2.26h-.56c-1.51,0-2.26-.75-2.26-2.26Z" style="fill:none; stroke-width:0px;"/></clipPath><linearGradient id="linear-gradient-11" x1="277.86" y1="12.96" x2="277.86" y2="60.47" xlink:href="#linear-gradient-4"/></defs><path d="M111.67,70.46h-3.09l-3.26,12.72c-.08.3-.28.45-.61.45h-.58c-.16,0-.28-.06-.35-.18s-.09-.27-.05-.44l3.19-12.55h-3.19c-.39,0-.54-.15-.44-.46l.14-.59c.05-.17.11-.28.19-.33s.22-.07.42-.07h7.87c.41,0,.58.19.48.57l-.11.46c-.05.28-.26.42-.62.42Z" style="fill:#fff; stroke-width:0px;"/><path d="M111.56,83.63h-.6c-.1,0-.17-.05-.23-.16-.05-.11-.05-.23,0-.36l3.71-14.35c.09-.3.31-.44.65-.44h.49c.39,0,.55.16.47.49l-2.12,7.82-.53,2.11,1.89-3.15c.45-.73.92-1.28,1.39-1.65.47-.37.88-.55,1.22-.55h.42c.21,0,.38.04.5.11.12.07.22.24.3.49s.04.63-.11,1.13l-2.26,8.23c-.04.19-.15.29-.33.29h-1.06c-.2,0-.26-.16-.17-.48l2.14-6.93c.1-.36.15-.6.15-.71s-.04-.17-.13-.17-.2.06-.33.18-.3.35-.52.67c-.24.38-.54.86-.9,1.44-.36.58-.68,1.09-.96,1.52s-.66,1.04-1.17,1.84-.96,1.59-1.37,2.39c-.12.17-.3.26-.53.26Z" style="fill:#fff; stroke-width:0px;"/><path d="M120.79,80.82c-.18,1,0,1.55.55,1.66.49-.19,1.1-.69,1.82-1.53.12-.11.26-.13.4-.04l.38.24c.18.14.24.29.18.45-.26.49-.73,1.01-1.42,1.56s-1.25.79-1.67.71c-.95-.25-1.51-.75-1.68-1.51-.19-1.02-.02-2.42.5-4.18s1.26-3.1,2.2-4c.33-.3.74-.53,1.23-.68.49-.15,1.01-.11,1.56.12s.82.89.81,1.97c0,1.08-.48,2.11-1.42,3.07-.94.96-2.09,1.68-3.45,2.16ZM121.03,79.53c.63-.27,1.16-.58,1.61-.95s.82-.8,1.11-1.32c.29-.52.44-1.05.44-1.6s-.16-.82-.47-.82c-.61,0-1.15.5-1.61,1.51-.46,1.01-.82,2.07-1.07,3.17Z" style="fill:#fff; stroke-width:0px;"/><path d="M132.17,70.28l-1.05.13c-.25,0-.36-.15-.31-.45l.08-.56c.04-.2.15-.32.34-.38.53-.12,1.38-.16,2.57-.14s2.13.39,2.85,1.12,1.1,1.79,1.15,3.2c.05,1.41-.18,2.95-.68,4.64-.51,1.69-1.23,3.09-2.15,4.19-.92,1.1-2.12,1.66-3.6,1.68-.72,0-1.32-.04-1.8-.11-.48-.07-.65-.39-.5-.97l3.11-12.35ZM133.79,70.24l-3.04,12.08c.12.01.44.02.94.02.85,0,1.63-.49,2.34-1.47s1.26-2.18,1.64-3.6c.38-1.42.58-2.61.61-3.6s-.16-1.8-.55-2.44c-.39-.64-1.04-.97-1.94-.99Z" style="fill:#fff; stroke-width:0px;"/><path d="M143.62,73.78c.05-.32.21-.47.46-.47l.46-.02c.49.01.67.26.54.73l-2.43,8.06c.42-.31.84-.76,1.25-1.34.15-.22.32-.26.5-.14l.49.33c.21.15.24.31.1.51-.55.65-1.06,1.15-1.52,1.51-.46.36-1.01.61-1.65.76-.18.03-.31-.05-.36-.22l-.37-1.12c-.38.5-.71.85-.98,1.04-.27.19-.48.28-.62.28h-.04c-.11,0-.28-.08-.5-.23s-.44-.36-.66-.61c-.22-.25-.37-.52-.47-.82s-.09-.83.02-1.61c.11-.78.42-1.87.92-3.27.51-1.4,1.03-2.38,1.56-2.93s1.2-.82,2-.81c.45,0,.87.12,1.28.36ZM143.31,74.85c-.72-.38-1.3-.38-1.75,0-.45.39-.89,1.17-1.32,2.36-.43,1.19-.71,2.12-.84,2.79-.13.68-.18,1.14-.16,1.38s.14.42.35.53.58-.11,1.08-.67c.5-.56.94-1.32,1.32-2.28s.82-2.34,1.32-4.12Z" style="fill:#fff; stroke-width:0px;"/><path d="M149.08,73.8l-2.44,9.38c-.08.29-.28.44-.6.44h-.59c-.38,0-.52-.15-.45-.46l2.46-9.38c.07-.27.25-.4.56-.4h.67c.18,0,.3.03.36.09.06.06.07.17.04.34ZM148.7,70.3h.19c.22,0,.43.1.62.31.19.2.29.44.29.7s-.1.49-.3.68c-.2.19-.44.28-.74.28h-.16c-.23,0-.44-.1-.62-.29s-.27-.42-.27-.68.09-.49.28-.69c.19-.2.42-.3.7-.3Z" style="fill:#fff; stroke-width:0px;"/><path d="M154.17,68.75l-3.68,14.43c-.08.3-.28.44-.61.44h-.33c-.5,0-.7-.22-.59-.65l3.7-14.23c.08-.3.28-.44.6-.44h.46c.38,0,.53.15.45.44Z" style="fill:#fff; stroke-width:0px;"/><path d="M160.1,73.38h.76c.08,0,.15.05.21.16.05.1.06.23.02.36l-2.97,10.74c-.32,1.24-.85,2.07-1.59,2.47-.32.18-.54.29-.65.33-.27.12-.66.02-1.18-.31l-2.06-1.16c-.18-.09-.27-.21-.29-.36-.01-.15.03-.28.12-.37l.31-.43c.22-.23.44-.29.67-.17l2.24,1.38c.3.16.52-.03.67-.55l1.92-6.93-.46.89-1.18,2.01c-.42.74-.86,1.29-1.3,1.65-.44.37-.83.55-1.17.55h-.12c-.28,0-.52-.1-.7-.31-.47-.51-.57-1.23-.31-2.16l2.06-7.51c.05-.18.16-.28.32-.28h1.05c.2,0,.26.16.16.48l-2.04,7c-.11.42-.12.68-.04.79.15.23.49-.05,1.03-.85.53-.79,1.89-3.18,4.06-7.15.11-.18.27-.28.48-.28Z" style="fill:#fff; stroke-width:0px;"/><path d="M167.49,81.88l6.12-12.44c.14-.31.4-.44.77-.4l.44.04c.44.05.58.3.42.77l-6.74,12.98c-.24.51-.65.78-1.21.81l-.63.02c-.27.01-.48-.08-.63-.29-.15-.21-.21-.48-.18-.82l.71-13.04c.04-.3.24-.44.61-.44h.68c.35,0,.5.18.46.55l-.83,12.27Z" style="fill:#fff; stroke-width:0px;"/><path d="M173.06,80.7c.06-1.8.51-3.51,1.36-5.12.84-1.61,1.92-2.4,3.22-2.38.68.04,1.21.38,1.58,1.02.28.44.4,1.19.35,2.24-.05,1.99-.6,3.84-1.64,5.53-.72,1.24-1.68,1.84-2.9,1.79-.43-.01-.83-.2-1.2-.56-.55-.53-.81-1.37-.77-2.52ZM176.52,81.5c.9-1.45,1.38-3.07,1.43-4.86.01-.79-.03-1.33-.12-1.6-.09-.27-.29-.41-.59-.42-.3,0-.57.14-.82.43-.25.29-.49.69-.72,1.21-.59,1.2-.91,2.61-.96,4.23-.03,1.22.18,1.85.62,1.88.38.01.77-.28,1.16-.87Z" style="fill:#fff; stroke-width:0px;"/><path d="M184.78,70.26l-.8,3.11h1.05c.3,0,.4.15.31.44l-.14.52c-.1.29-.28.44-.53.44h-1.05l-2.14,8.42c-.08.3-.28.44-.61.44h-.37c-.22,0-.37-.06-.46-.18s-.11-.28-.07-.47l2.1-8.21h-.81c-.27,0-.35-.16-.26-.48l.16-.53c.08-.25.23-.38.44-.38h.81l.81-3.13c.08-.3.28-.44.6-.44h.51c.38,0,.52.15.45.46Z" style="fill:#fff; stroke-width:0px;"/><path d="M188.27,73.8l-2.44,9.38c-.08.29-.28.44-.6.44h-.59c-.38,0-.53-.15-.45-.46l2.46-9.38c.07-.27.25-.4.56-.4h.67c.18,0,.3.03.36.09.06.06.07.17.04.34ZM187.9,70.3h.19c.22,0,.43.1.62.31.19.2.29.44.29.7s-.1.49-.3.68c-.2.19-.44.28-.74.28h-.16c-.23,0-.44-.1-.62-.29s-.27-.42-.27-.68.09-.49.28-.69c.19-.2.42-.3.7-.3Z" style="fill:#fff; stroke-width:0px;"/><path d="M190.83,79.07l2.1-3.49c.45-.73.91-1.28,1.38-1.65.47-.37.87-.55,1.21-.55h.42c.22,0,.39.04.51.11.12.07.22.24.3.49s.04.63-.11,1.13l-2.26,8.23c-.04.19-.15.29-.33.29h-1.06c-.2,0-.25-.16-.16-.48l2.12-6.93c.1-.36.16-.6.16-.71s-.05-.17-.14-.17-.2.06-.33.18c-.13.12-.3.34-.52.67-.26.37-.57.85-.93,1.43-.36.59-.82,1.31-1.37,2.17-1.05,1.59-1.8,2.78-2.25,3.58-.11.18-.28.27-.51.27h-.59c-.08,0-.15-.05-.21-.16-.06-.11-.07-.23-.03-.36l2.45-9.21c.07-.35.21-.52.42-.52h.86c.33,0,.44.2.34.6l-1.49,5.1Z" style="fill:#fff; stroke-width:0px;"/><path d="M201.39,73.42c.45,0,.88.13,1.29.38.08-.27.22-.4.42-.4l.69-.02c.34-.01.47.16.4.52-.31,1.24-1.3,4.81-2.97,10.74-.35,1.26-.88,2.08-1.6,2.46-.37.23-.67.35-.88.36s-.53-.1-.96-.34l-2.06-1.16c-.32-.16-.38-.41-.17-.73l.31-.42c.22-.24.44-.3.67-.17l2.24,1.38c.31.13.53-.05.67-.55l.97-3.53c-.3.5-.63.92-.99,1.25-.37.34-.66.5-.89.5h-.04c-.11,0-.27-.08-.5-.23-.23-.15-.45-.36-.67-.63-.21-.26-.36-.54-.45-.84-.09-.3-.07-.85.05-1.66s.43-1.89.92-3.26,1-2.31,1.53-2.85,1.2-.81,2.01-.81ZM202.35,74.91c-.67-.37-1.23-.4-1.68-.08-.45.32-.9,1.09-1.35,2.31s-.74,2.17-.87,2.86c-.13.69-.18,1.15-.16,1.39.02.24.14.42.36.53.22.11.59-.13,1.11-.72s.96-1.36,1.33-2.3c.36-.94.77-2.21,1.21-3.81l.06-.19Z" style="fill:#fff; stroke-width:0px;"/><path d="M212.07,76.77h3.66c.21,0,.26.15.17.45-.77,2.45-1.53,4.14-2.28,5.06-.75.92-1.59,1.41-2.5,1.49-.92.08-1.66-.17-2.23-.72s-.88-1.6-.94-3.11c-.05-1.52.16-3.15.64-4.89.48-1.74,1.17-3.15,2.09-4.24.92-1.08,1.8-1.7,2.64-1.85.84-.15,1.49-.07,1.96.25.46.32.82.86,1.06,1.6.24.75.37,1.31.37,1.69s-.13.62-.39.72l-.69.21c-.13.03-.24,0-.32-.07-.09-.08-.14-.32-.16-.74-.02-.42-.12-.84-.31-1.28-.19-.44-.44-.7-.74-.77-.64-.16-1.33.24-2.08,1.22-.75.98-1.32,2.2-1.73,3.68-.4,1.48-.62,2.73-.66,3.74-.03,1.01.05,1.79.26,2.34.21.55.55.81,1.02.78s.95-.35,1.44-.94.97-1.66,1.44-3.21h-1.94c-.26,0-.33-.19-.24-.57l.16-.58c.05-.16.15-.24.31-.24Z" style="fill:#fff; stroke-width:0px;"/><path d="M222.38,73.78c.05-.32.21-.47.46-.47l.46-.02c.49.01.67.26.54.73l-2.43,8.06c.42-.31.84-.76,1.25-1.34.15-.22.32-.26.5-.14l.49.33c.21.15.24.31.1.51-.55.65-1.06,1.15-1.52,1.51-.46.36-1.01.61-1.65.76-.18.03-.31-.05-.36-.22l-.37-1.12c-.38.5-.71.85-.98,1.04-.27.19-.48.28-.62.28h-.04c-.11,0-.28-.08-.5-.23s-.44-.36-.66-.61c-.22-.25-.37-.52-.47-.82s-.09-.83.02-1.61c.11-.78.42-1.87.92-3.27.51-1.4,1.03-2.38,1.56-2.93.53-.55,1.2-.82,2-.81.45,0,.87.12,1.28.36ZM222.08,74.85c-.72-.38-1.3-.38-1.75,0-.45.39-.89,1.17-1.32,2.36-.43,1.19-.71,2.12-.84,2.79-.13.68-.18,1.14-.16,1.38s.14.42.35.53.58-.11,1.08-.67c.5-.56.94-1.32,1.32-2.28s.82-2.34,1.32-4.12Z" style="fill:#fff; stroke-width:0px;"/><path d="M226.41,73.9c.07-.26.13-.41.18-.45.06-.05.13-.07.22-.07h.83c.34,0,.44.19.33.58l-1.52,5.09,2.1-3.47c.39-.68.81-1.21,1.28-1.61s.86-.59,1.16-.59h.4c.21,0,.37.03.48.1.12.07.21.23.29.48.08.25.04.61-.11,1.09l-1.23,4.53,2.34-4.03c.42-.73.87-1.28,1.35-1.64.48-.36.89-.54,1.23-.54h.42c.22,0,.38.04.51.11.12.07.22.24.29.49.07.26.04.63-.11,1.13l-2.26,8.23c-.05.19-.15.29-.32.29h-1.05c-.2,0-.25-.16-.16-.48l2.12-6.93c.11-.36.16-.59.16-.71s-.05-.17-.14-.17-.2.06-.32.18-.29.35-.5.67c-.25.37-.52.8-.83,1.29-.31.49-.7,1.12-1.19,1.89s-.82,1.29-1,1.55c-.7.95-1.22,1.74-1.56,2.36-.07.23-.17.35-.3.35h-.9c-.18,0-.23-.16-.14-.48l2.12-6.93c.1-.36.16-.59.16-.71s-.05-.17-.14-.17-.2.06-.33.18-.3.34-.52.66c-.25.37-.56.85-.92,1.43s-.82,1.31-1.37,2.17c-1.04,1.58-1.78,2.77-2.21,3.57-.1.19-.27.29-.48.29h-.56c-.08,0-.15-.05-.2-.16-.06-.11-.06-.23-.02-.36l2.44-9.21Z" style="fill:#fff; stroke-width:0px;"/><path d="M238.66,80.82c-.18,1,0,1.55.55,1.66.49-.19,1.1-.69,1.82-1.53.12-.11.26-.13.4-.04l.38.24c.18.14.23.29.18.45-.26.49-.73,1.01-1.42,1.56s-1.25.79-1.67.71c-.95-.25-1.51-.75-1.68-1.51-.19-1.02-.02-2.42.5-4.18.53-1.77,1.26-3.1,2.2-4,.33-.3.74-.53,1.23-.68.49-.15,1.01-.11,1.56.12.55.23.82.89.81,1.97,0,1.08-.48,2.11-1.42,3.07s-2.09,1.68-3.45,2.16ZM238.9,79.53c.63-.27,1.16-.58,1.61-.95s.82-.8,1.11-1.32.44-1.05.44-1.6-.16-.82-.47-.82c-.61,0-1.15.5-1.61,1.51s-.82,2.07-1.07,3.17Z" style="fill:#fff; stroke-width:0px;"/><rect x="0" y="41.67" width="78.27" height="50.74" rx="2.36" ry="2.36" style="fill:url(#linear-gradient); stroke-width:0px;"/><path d="M6.86,46.66h64.56v7.69c0,.95-.77,1.72-1.72,1.72H8.58c-.95,0-1.72-.77-1.72-1.72v-7.69h0Z" style="fill:#7f123e; stroke-width:0px;"/><path d="M12.14,56.07c-4.69-5.89-7.49-13.34-7.49-21.43C4.65,15.64,20.1.19,39.1.19s34.46,15.46,34.46,34.46c0,8.09-2.8,15.54-7.49,21.43" style="fill:#fff; stroke-width:0px;"/><path d="M12.14,56.07c-4.69-5.89-7.49-13.34-7.49-21.43C4.65,15.64,20.1.19,39.1.19s34.46,15.46,34.46,34.46c0,8.09-2.8,15.54-7.49,21.43" style="fill:url(#linear-gradient-2); stroke-width:0px;"/><path d="M28.91,41.26c-1.24-1.91-1.97-4.18-1.97-6.62,0-6.71,5.46-12.17,12.17-12.17,3.17,0,6.05,1.23,8.22,3.22l14.95-12.63c-5.78-6.2-14.02-10.09-23.17-10.09-17.49,0-31.66,14.18-31.66,31.66,0,7.24,2.43,13.91,6.52,19.24l14.94-12.62Z" style="fill:#bfbebe; stroke-width:0px;"/><path d="M62.41,56.07c5.19-5.64,8.35-13.16,8.35-21.43,0-7.22-2.42-13.87-6.49-19.2l-14.95,12.63c1.22,1.9,1.94,4.15,1.94,6.57,0,6.71-5.46,12.17-12.17,12.17-3.15,0-6.02-1.21-8.18-3.18l-14.73,12.45" style="fill:#bfbebe; stroke-width:0px;"/><circle cx="39.12" cy="34.66" r="9.08" transform="translate(-5.05 6.71) rotate(-9.22)" style="fill:#bfbebe; stroke-width:0px;"/><path d="M282.28,50.78l-.4-.4c-.12-.12-.24-.24-.37-.34,1.15-.88,1.82-2.3,1.82-4.08v-27.09c0-3.05-2.05-5.09-5.09-5.09h-.56c-3.09,0-5.09,2-5.09,5.09v13.54h-1.67c-.28-.45-.6-.88-.99-1.27l-1.81-1.81c-1.32-1.32-2.97-2.02-4.77-2.02h-7c-1.84,0-3.49.68-4.77,1.96l-1.86,1.86c-.39.39-.72.82-.99,1.27h-2.47c-.25-.43-.55-.84-.9-1.23l-1.9-1.91c-1.28-1.28-2.93-1.96-4.77-1.96h-7c-1.84,0-3.49.68-4.77,1.96l-1.86,1.86c-.39.39-.72.82-.99,1.27h-2.47c-.28-.45-.6-.88-.99-1.27l-1.81-1.81c-1.32-1.32-2.97-2.02-4.77-2.02h-3.33c-1.54,0-2.96.51-4.18,1.48-1.21-.97-2.64-1.48-4.18-1.48h-3.56c-1.84,0-3.49.68-4.77,1.96l-1.81,1.81c-.4.4-.74.85-1.02,1.33h-2.41c-.28-.47-.62-.92-1.03-1.33l-1.81-1.81c-1.28-1.28-2.93-1.96-4.77-1.96h-1.36c.21-.13.41-.27.6-.43.78-.65,1.38-1.45,1.76-2.34l2.28-5.02c.64-1.49.47-3.02-.46-4.2-.82-1.04-2.08-1.61-3.55-1.61h-1.19c-1.3,0-2.48.41-3.42,1.19-.78.65-1.38,1.45-1.76,2.34l-2.28,5.02c-.64,1.49-.47,3.02.47,4.2.29.36.63.67,1.02.92-1.45.19-2.76.84-3.81,1.9l-1.81,1.81c-.11.11-.22.24-.32.36-.39-2.5-2.3-4.12-5.01-4.12h-1.68v-2.36c0-3.09-2-5.09-5.09-5.09h-.62c-3.09,0-5.09,2-5.09,5.09v2.39c-2.64.25-4.33,2.07-4.44,4.79-.22-.33-.46-.65-.73-.95l-1.9-1.91c-1.28-1.28-2.93-1.96-4.77-1.96h-7c-1.84,0-3.49.68-4.77,1.96l-1.86,1.86c-.39.39-.72.82-.99,1.27h-1.06l2.79-11.75c.1-.38.15-.81.15-1.4,0-2.78-1.96-4.64-4.87-4.64h-.68c-2.69,0-4.65,1.56-5.25,4.18l-5.27,22.99-5.4-22.99c-.6-2.62-2.56-4.18-5.25-4.18h-.62c-3.4,0-4.92,2.3-4.92,4.58,0,.1,0,.33.06.65.02.18.06.4.11.65l8.78,36.26c.66,2.57,2.62,4.1,5.23,4.1h4.12c2.69,0,4.05-.76,6.4-2.04,1.8-.98,5.37-2.89,5.37-2.89l3.15,2.97c1.28,1.28,2.93,1.96,4.77,1.96h7c1.84,0,3.58-.61,5.19-1.44,1.91-.99,6.94-4.08,6.94-4.08l3.53,3.56c1.28,1.28,2.93,1.96,4.77,1.96h3.89c2.79,0,4.67-1.63,5.02-4.22.1.12.2.23.31.34l1.81,1.81c1.32,1.32,2.97,2.01,4.77,2.01h10.38c3.09,0,5.09-2,5.09-5.09h.54c0,3.09,2,5.09,5.09,5.09h.56c3.09,0,5.09-2,5.09-5.09h.14c0,3.09,2,5.09,5.09,5.09h.56c2.83,0,4.75-1.68,5.05-4.34.3,2.66,2.22,4.34,5.05,4.34h.56c3.09,0,5.09-2,5.09-5.09h1.47c.28.47.62.92,1.03,1.33l1.86,1.86c1.28,1.28,2.93,1.96,4.77,1.96h7c1.84,0,3.49-.68,4.77-1.96l1.81-1.81c.43-.43.78-.9,1.08-1.38h1.42v.11c0,3.09,2,5.09,5.09,5.09h.62c3.09,0,5.09-2,5.09-5.09v-.11h2.57v.11c0,3.09,2,5.09,5.09,5.09h.56c3.09,0,5.09-2,5.09-5.09v-.11h.09c.19.86.64,1.88,1.68,2.91l.39.39c1.48,1.48,2.95,1.79,3.92,1.79s2.44-.31,3.92-1.79l.4-.4c1.48-1.48,1.79-2.95,1.79-3.92s-.31-2.44-1.79-3.92Z" style="fill:url(#linear-gradient-3); stroke-width:0px;"/><g style="clip-path:url(#clippath);"><rect x="94.44" y="6.74" width="29.4" height="54.8" style="fill:url(#linear-gradient-4); stroke-width:0px;"/></g><g style="clip-path:url(#clippath-1);"><rect x="119.78" y="16.72" width="29.4" height="54.8" style="fill:url(#linear-gradient-5); stroke-width:0px;"/></g><g style="clip-path:url(#clippath-2);"><rect x="138.05" y="12.96" width="29.4" height="54.8" style="fill:url(#linear-gradient-6); stroke-width:0px;"/></g><g style="clip-path:url(#clippath-3);"><rect x="164.11" y="12.96" width="29.4" height="54.8" style="fill:url(#linear-gradient-7); stroke-width:0px;"/></g><g style="clip-path:url(#clippath-4);"><rect x="188.35" y="7.83" width="36.11" height="54.8" style="fill:url(#linear-gradient-8); stroke-width:0px;"/></g><g style="clip-path:url(#clippath-5);"><rect x="223.57" y="24.03" width="23.17" height="54.8" style="fill:url(#linear-gradient-9); stroke-width:0px;"/></g><g style="clip-path:url(#clippath-6);"><rect x="248.29" y="7.89" width="23.17" height="54.8" style="fill:url(#linear-gradient-10); stroke-width:0px;"/></g><g style="clip-path:url(#clippath-7);"><rect x="272.06" y="7.89" width="11.58" height="54.8" style="fill:url(#linear-gradient-11); stroke-width:0px;"/></g></svg>